<svg width="500" height="500" viewBox="0 0 500 500" fill="none" xmlns="http://www.w3.org/2000/svg">
<rect width="500" height="500" rx="24" fill="#222420"/>
<path d="M249.785 59.24C272.659 59.24 292.869 63.94 310.415 73.34C327.962 82.74 341.592 96.0567 351.305 113.29C361.019 130.523 365.875 150.42 365.875 172.98V285.78C365.875 313.353 358.042 336.853 342.375 356.28C327.022 375.393 306.029 387.613 279.395 392.94C278.142 393.253 277.515 394.193 277.515 395.76V435.24C277.515 436.807 276.889 438.06 275.635 439C274.695 440.253 273.442 440.88 271.875 440.88H228.635C227.069 440.88 225.659 440.253 224.405 439C223.465 438.06 222.995 436.807 222.995 435.24V395.76C222.995 394.507 222.212 393.567 220.645 392.94C194.325 387.613 173.332 375.393 157.665 356.28C141.999 337.167 134.165 313.667 134.165 285.78V172.98C134.165 150.42 139.022 130.523 148.735 113.29C158.449 96.0567 171.922 82.74 189.155 73.34C206.702 63.94 226.912 59.24 249.785 59.24ZM311.355 170.16C311.355 151.047 305.715 135.693 294.435 124.1C283.155 112.193 268.272 106.24 249.785 106.24C231.612 106.24 216.885 112.193 205.605 124.1C194.325 135.693 188.685 151.047 188.685 170.16V284.84C188.685 303.953 194.325 319.463 205.605 331.37C216.885 342.963 231.612 348.76 249.785 348.76C268.272 348.76 283.155 342.963 294.435 331.37C305.715 319.463 311.355 303.953 311.355 284.84V170.16Z" fill="#5CA300"/>
</svg>
